<svg aria-hidden="true" style="position:absolute;width:0;height:0;overflow:hidden" xmlns="http://www.w3.org/2000/svg">
  <defs>
    <symbol id="icon-close" viewBox="0 0 32 32">
      <path fill="none" stroke="#fbfbfb" style="stroke:var(--color1, #fbfbfb)" stroke-linejoin="round" stroke-linecap="round" stroke-width="3.2" d="M24 8 8 24M8 8l16 16"/>
    </symbol>
    <symbol id="icon-hamburger" viewBox="0 0 32 32">
     <path stroke-linejoin="round" stroke-linecap="round" stroke-miterlimit="4" stroke-width="3" d="M5.333 8h21.333M5.333 16h10.667M5.333 24h21.333"></path>
    </symbol>
   <symbol id="icon-logo" viewBox="0 0 336 32">
      <path d="M29.082.314h-4.009c-1.237 0-2.24.983-2.24 2.195v3.929c0 1.212 1.003 2.195 2.24 2.195h4.009c1.237 0 2.24-.983 2.24-2.195V2.509c0-1.212-1.003-2.195-2.24-2.195zM6.73 23.04H2.412C1.08 23.04 0 24.023 0 25.235v3.929c0 1.213 1.08 2.195 2.412 2.195H6.73c1.332 0 2.412-.983 2.412-2.195v-3.929c0-1.212-1.08-2.195-2.412-2.195zm-.48-11.458H2.241c-1.237 0-2.24.983-2.24 2.195v3.929c0 1.212 1.003 2.195 2.24 2.195H6.25c1.237 0 2.24-.983 2.24-2.195v-3.929c0-1.212-1.003-2.195-2.24-2.195zm11.516 11.396h-4.009c-1.237 0-2.24.983-2.24 2.195v3.929c0 1.212 1.003 2.195 2.241 2.195h4.009c1.237 0 2.24-.983 2.24-2.195v-3.929c0-1.213-1.003-2.195-2.24-2.195zM6.25.086H2.241c-1.237 0-2.24.983-2.24 2.195V6.21c0 1.212 1.003 2.195 2.24 2.195H6.25c1.237 0 2.24-.983 2.24-2.195V2.281C8.49 1.069 7.487.086 6.25.086zm11.826 11.611h-4.009c-1.237 0-2.24.983-2.24 2.195v3.929c0 1.212 1.003 2.195 2.24 2.195h4.009c1.237 0 2.24-.983 2.24-2.195v-3.929c0-1.212-1.003-2.195-2.24-2.195zm11.257 11.281h-4.01c-1.237 0-2.24.983-2.24 2.195v3.929c0 1.212 1.003 2.195 2.24 2.195h4.009c1.237 0 2.24-.983 2.24-2.195v-3.929c0-1.213-1.003-2.195-2.24-2.195zM17.591.224h-4.009c-1.237 0-2.24.983-2.24 2.195v3.929c0 1.212 1.003 2.195 2.24 2.195h4.009c1.237 0 2.24-.984 2.24-2.196V2.418c0-1.212-1.003-2.195-2.24-2.195zm11.453 11.702h-4.01c-1.237 0-2.24.983-2.24 2.195v3.929c0 1.212 1.003 2.195 2.24 2.195h4.009c1.237 0 2.24-.983 2.24-2.195v-3.929c0-1.212-1.003-2.195-2.24-2.195zM52.602 28C45.026 28 40 23.296 40 15.968 40 8.8 44.955 4 52.422 4c6.283 0 10.699 3.296 11.345 8.256h-5.206c-.503-2.848-2.908-4.448-6.139-4.448-4.524 0-7.216 3.264-7.216 8.16 0 5.376 3.016 8.224 7.396 8.224 3.806 0 6.247-1.92 6.498-4.8v-.32h-7.001v-3.584h11.848v2.944C63.732 24.16 59.208 28 52.602 28zm14.484-.32V4.32h12.602c6.427 0 8.976 2.784 8.976 6.816 0 3.616-2.872 5.344-6.211 5.76v.096c2.154.48 3.124 1.536 4.021 3.616 1.149 2.624 1.328 5.76 2.8 6.88v.192h-5.745c-1.221-1.088-1.508-4.512-2.154-6.592-.646-2.144-2.046-2.4-4.667-2.4h-4.596v8.992h-5.026zm5.026-12.704h7.037c2.944 0 4.308-1.536 4.308-3.52 0-2.176-1.687-3.424-4.308-3.424h-7.037v6.944zm19.89 12.704V4.32h17.916v3.712H97.029V13.6h11.633v3.712H97.029v6.56h13.069v3.808H92.003zm21.585 0V4.32h17.916v3.712h-12.889V13.6h11.633v3.712h-11.633v6.56h13.069v3.808h-18.095zm21.585 0V4.32h6.104l8.688 12.896c2.657 3.904 2.98 5.184 2.98 5.184h.108l-.072-18.08h5.026v23.36h-6.139l-9.012-13.28c-2.046-3.008-2.585-4.832-2.585-4.832h-.072V27.68h-5.026zm26.616 0v-4.736h5.242v4.736h-5.242zm9.017 0V4.32h5.026v9.344h12.028V4.32h5.026v23.36h-5.026V17.376h-12.028V27.68h-5.026zm24.228 0 10.053-23.36h5.458l10.196 23.36h-5.386l-2.118-5.376h-10.878l-2.118 5.376h-5.207zm8.761-9.088h8.006l-2.334-5.76c-1.616-4.256-1.652-5.024-1.652-5.024h-.072s0 .768-1.614 5.024l-2.334 5.76zm19.086 9.088V4.32h12.602c6.428 0 8.976 2.784 8.976 6.816 0 3.616-2.872 5.344-6.21 5.76v.096c2.154.48 3.122 1.536 4.02 3.616 1.15 2.624 1.328 5.76 2.8 6.88v.192h-5.744c-1.22-1.088-1.508-4.512-2.154-6.592-.646-2.144-2.046-2.4-4.668-2.4h-4.594v8.992h-5.028zm5.028-12.704h7.036c2.944 0 4.308-1.536 4.308-3.52 0-2.176-1.688-3.424-4.308-3.424h-7.036v6.944zm25.218 12.704-9.622-23.36h5.386s5.206 13.088 5.744 14.688c.862 2.56 1.256 3.872 1.256 3.872h.072c-.036 0 .36-1.312 1.256-3.872.576-1.6 5.566-14.688 5.566-14.688h5.206l-9.264 23.36h-5.6zm16.922 0V4.32h17.916v3.712h-12.89V13.6h11.634v3.712h-11.634v6.56h13.07v3.808h-18.096zm30.574.32c-6.678 0-10.7-3.232-10.7-8.032h5.746c-.072 2.72 1.938 4.224 4.954 4.224 3.196 0 4.702-1.12 4.702-2.784s-1.292-2.368-5.888-3.488c-4.2-1.024-8.796-2.24-8.796-7.04 0-3.808 3.734-6.88 9.622-6.88 6.068 0 9.946 3.04 9.946 7.328h-5.566c-.036-2.272-1.758-3.52-4.38-3.52-2.548 0-4.236 1.152-4.236 2.688 0 1.824 1.4 2.4 5.062 3.328 5.422 1.344 9.802 1.888 9.802 7.104 0 4.192-4.272 7.072-10.268 7.072zm18.452-.32V8.128h-7.934V4.32H332v3.808h-7.898V27.68h-5.028z"/>
   </symbol>
<symbol id="icon-facebook" viewBox="0 0 180 32">
<path d="M4.285 30.316v-17.421h-3.557v-4.083h3.557v-2.304c0-4.285 2.749-6.104 6.952-6.104 1.051 0 2.142 0.121 2.991 0.364v4.042c-3.153-0.243-4.568 0.162-4.568 2.789v1.213h4.568v4.083h-4.568v17.421h-5.376zM22.417 30.72c-4.365 0-7.276-2.547-7.276-6.387 0-4.891 4.002-6.467 9.742-6.912l4.204-0.283c0-3.395-1.496-4.77-3.88-4.77-2.627 0-3.921 1.374-3.921 3.395h-5.457c0.040-4.365 3.759-7.357 9.297-7.357 5.982 0 9.337 3.315 9.337 8.327v9.256c0 2.789 0.202 3.234 0.728 4.042v0.283h-5.133c-0.364-0.566-0.606-2.021-0.606-2.829h-0.121c-1.253 2.264-4.123 3.234-6.912 3.234zM24.276 26.718c3.072 0 4.81-2.264 4.81-5.214v-0.889l-4.285 0.404c-2.668 0.283-4.002 1.253-4.002 2.91 0 1.698 1.455 2.789 3.476 2.789zM48.573 30.72c-6.589 0-10.752-4.487-10.752-11.197 0-6.669 4.325-11.116 10.833-11.116 5.497 0 9.58 3.315 9.984 8.125h-5.497c-0.445-2.547-2.223-3.84-4.487-3.84-3.476 0-5.174 2.708-5.174 6.831 0 4.608 2.021 6.912 5.093 6.912 2.547 0 4.163-1.536 4.568-3.88h5.497c-0.566 4.851-4.083 8.165-10.065 8.165zM71.731 30.72c-6.387 0-10.792-4.81-10.792-11.156 0-6.71 4.527-11.156 10.631-11.156 5.861 0 10.307 4.244 10.307 10.631 0 0.525 0 0.889-0.040 1.738h-15.239c0 3.719 2.223 5.659 5.255 5.659 2.385 0 3.8-1.091 4.487-2.991h5.295c-0.566 4.244-4.851 7.276-9.903 7.276zM66.638 17.3h9.782c-0.243-2.991-2.183-4.608-4.851-4.608-2.87 0-4.689 1.859-4.931 4.608zM97.029 30.72c-2.708 0-5.012-1.051-6.387-2.951h-0.081v2.547h-5.376v-29.507h5.376c0 0 0 7.114-0.162 10.671h0.121c1.455-2.061 3.961-3.072 6.427-3.072 5.901 0 9.378 4.487 9.378 11.197 0 6.993-3.719 11.116-9.297 11.116zM95.493 26.435c3.234 0 5.174-2.708 5.174-6.831 0-4.325-2.102-6.912-5.214-6.912-3.315 0-5.174 2.749-5.174 6.912 0 4.365 2.102 6.831 5.214 6.831zM119.588 30.72c-6.589 0-10.954-4.406-10.954-11.197 0-6.75 4.365-11.116 10.954-11.116 6.548 0 10.914 4.365 10.914 11.116 0 6.791-4.365 11.197-10.914 11.197zM119.588 26.435c3.395 0 5.255-2.749 5.255-6.912 0-4.365-2.102-6.831-5.255-6.831-3.395 0-5.295 2.749-5.295 6.831 0 4.446 2.102 6.912 5.295 6.912zM143.771 30.72c-6.589 0-10.954-4.406-10.954-11.197 0-6.75 4.365-11.116 10.954-11.116 6.548 0 10.914 4.365 10.914 11.116 0 6.791-4.365 11.197-10.914 11.197zM143.771 26.435c3.395 0 5.255-2.749 5.255-6.912 0-4.365-2.102-6.831-5.255-6.831-3.395 0-5.295 2.749-5.295 6.831 0 4.446 2.102 6.912 5.295 6.912zM158.011 30.316v-29.507h5.376v9.459c0 5.578-0.081 6.589-0.081 6.589h0.081l8.003-8.044h6.71l-9.378 9.297 10.873 12.207h-6.346l-7.842-8.893-2.021 1.981v6.912h-5.376z"></path>
</symbol>
<symbol id="icon-youtube" viewBox="0 0 128 32">
<path d="M5.409 31.722c-1.636 0-2.605-0.1-3.506-0.234v-3.873c1.169 0.2 1.937 0.234 2.538 0.234 1.837 0 2.337-0.634 2.771-1.67l0.434-1.135-7.279-17.764h4.875l3.539 9.784c1.069 2.972 1.169 3.439 1.235 3.807h0.067c0.067-0.367 0.2-0.868 1.235-3.807l3.506-9.784h4.508l-7.613 19.868c-1.269 3.239-3.406 4.575-6.311 4.575zM29.283 25.377c-5.443 0-9.049-3.64-9.049-9.249 0-5.576 3.606-9.183 9.049-9.183 5.409 0 9.016 3.606 9.016 9.183 0 5.61-3.606 9.249-9.016 9.249zM29.283 21.838c2.805 0 4.341-2.271 4.341-5.71 0-3.606-1.736-5.643-4.341-5.643-2.805 0-4.374 2.271-4.374 5.643 0 3.673 1.736 5.71 4.374 5.71zM47.257 25.377c-4.408 0-6.445-2.838-6.445-7.112v-10.986h4.441v10.886c0 2.504 1.169 3.673 3.039 3.673 2.638 0 3.94-2.037 3.94-5.075v-9.483h4.441v17.764h-4.441v-2.204h-0.1c-0.935 1.703-2.771 2.538-4.875 2.538zM66.685 25.21c-3.706 0-5.276-1.903-5.276-4.341v-10.218h-2.838v-3.373h2.838v-4.775h4.441v4.775h3.306v3.373h-3.306v8.615c0 1.736 0.768 2.204 2.404 2.204 0.367 0 0.735-0.033 0.902-0.067v3.64c-0.501 0.1-1.436 0.167-2.471 0.167zM77.885 25.377c-4.408 0-6.445-2.838-6.445-7.112v-10.986h4.441v10.886c0 2.504 1.169 3.673 3.039 3.673 2.638 0 3.94-2.037 3.94-5.075v-9.483h4.441v17.764h-4.441v-2.204h-0.1c-0.935 1.703-2.771 2.538-4.875 2.538zM100.653 25.377c-2.237 0-4.141-0.868-5.276-2.438h-0.067v2.104h-4.441v-24.376h4.441c0 0 0 5.877-0.134 8.815h0.1c1.202-1.703 3.272-2.538 5.309-2.538 4.875 0 7.747 3.706 7.747 9.249 0 5.777-3.072 9.183-7.68 9.183zM99.384 21.838c2.671 0 4.274-2.237 4.274-5.643 0-3.573-1.736-5.71-4.307-5.71-2.738 0-4.274 2.271-4.274 5.71 0 3.606 1.736 5.643 4.307 5.643zM119.156 25.377c-5.276 0-8.915-3.974-8.915-9.216 0-5.543 3.74-9.216 8.782-9.216 4.842 0 8.515 3.506 8.515 8.782 0 0.434 0 0.735-0.033 1.436h-12.589c0 3.072 1.837 4.675 4.341 4.675 1.97 0 3.139-0.902 3.706-2.471h4.374c-0.467 3.506-4.007 6.010-8.181 6.010zM114.948 14.291h8.081c-0.2-2.471-1.803-3.807-4.007-3.807-2.371 0-3.873 1.536-4.074 3.807z"></path>
</symbol>
<symbol id="icon-instagram" viewBox="0 0 153 32">
<path d="M0.646 5.009v-4.341h4.842v4.341h-4.842zM0.846 25.043v-17.764h4.441v17.764h-4.441zM9.014 25.043v-17.764h4.441v2.337h0.067c1.002-1.569 3.039-2.671 5.176-2.671 4.508 0 6.511 3.005 6.511 7.112v10.986h-4.441v-10.886c0-2.504-1.336-3.673-3.339-3.673-2.638 0-3.974 2.037-3.974 5.075v9.483h-4.441zM35.181 25.377c-4.675 0-7.747-2.538-7.747-6.344h4.307c0 1.87 1.436 3.039 3.439 3.039 1.903 0 3.005-0.735 3.005-1.837 0-1.569-1.235-1.703-4.842-2.671-3.873-1.102-5.409-2.438-5.409-5.209 0-3.139 2.771-5.409 7.012-5.409 4.608 0 7.179 2.271 7.179 5.71h-4.307c0-1.503-1.035-2.538-2.872-2.538-1.636 0-2.605 0.701-2.605 1.736 0 1.135 0.768 1.536 3.039 2.137 3.172 0.801 7.48 1.402 7.48 5.843 0 3.339-3.105 5.543-7.68 5.543zM51.598 25.21c-3.706 0-5.276-1.903-5.276-4.341v-10.218h-2.838v-3.373h2.838v-4.775h4.441v4.775h3.306v3.373h-3.306v8.615c0 1.736 0.768 2.204 2.404 2.204 0.367 0 0.735-0.033 0.902-0.067v3.64c-0.501 0.1-1.436 0.167-2.471 0.167zM61.538 25.377c-3.606 0-6.010-2.104-6.010-5.276 0-4.040 3.306-5.343 8.047-5.71l3.473-0.234c0-2.805-1.235-3.94-3.206-3.94-2.17 0-3.239 1.135-3.239 2.805h-4.508c0.033-3.606 3.105-6.077 7.68-6.077 4.942 0 7.713 2.738 7.713 6.879v7.647c0 2.304 0.167 2.671 0.601 3.339v0.234h-4.241c-0.301-0.467-0.501-1.67-0.501-2.337h-0.1c-1.035 1.87-3.406 2.671-5.71 2.671zM63.074 22.072c2.538 0 3.974-1.87 3.974-4.307v-0.735l-3.539 0.334c-2.204 0.234-3.306 1.035-3.306 2.404 0 1.402 1.202 2.304 2.872 2.304zM83.212 31.789c-4.808 0-8.081-2.438-8.448-6.077h4.441c0.434 2.003 1.903 2.805 4.007 2.805 3.039 0 4.174-1.67 4.274-4.141l0.1-2.471h-0.134c-0.735 1.536-3.105 2.538-5.409 2.538-4.675 0-7.78-3.539-7.78-8.815 0-5.209 3.105-8.682 7.847-8.682 2.237 0 4.307 1.069 5.109 2.538h0.067l-0.033-2.204h4.441v17.263c0 4.641-3.606 7.246-8.481 7.246zM83.145 20.903c2.705 0 4.341-2.070 4.341-5.176 0-3.306-1.703-5.242-4.274-5.242-2.605 0-4.307 2.070-4.307 5.176 0 3.139 1.67 5.242 4.241 5.242zM94.705 25.043v-17.764h4.441v3.272h0.1c0.768-1.703 2.605-3.406 5.743-3.406 0.534 0 0.868 0.067 1.102 0.134v4.441h-0.134c0 0-0.401-0.134-1.503-0.134-3.439 0-5.309 2.037-5.309 5.843v7.613h-4.441zM112.437 25.377c-3.606 0-6.010-2.104-6.010-5.276 0-4.040 3.306-5.343 8.047-5.71l3.473-0.234c0-2.805-1.235-3.94-3.206-3.94-2.17 0-3.239 1.135-3.239 2.805h-4.508c0.033-3.606 3.105-6.077 7.68-6.077 4.942 0 7.713 2.738 7.713 6.879v7.647c0 2.304 0.167 2.671 0.601 3.339v0.234h-4.241c-0.301-0.467-0.501-1.67-0.501-2.337h-0.1c-1.035 1.87-3.406 2.671-5.71 2.671zM113.973 22.072c2.538 0 3.974-1.87 3.974-4.307v-0.735l-3.539 0.334c-2.204 0.234-3.306 1.035-3.306 2.404 0 1.402 1.202 2.304 2.872 2.304zM125.997 25.043v-17.764h4.441v2.337h0.067c0.935-1.636 2.872-2.671 4.875-2.671 2.471 0 4.041 1.002 5.009 2.771h0.067c1.269-1.77 3.473-2.771 5.677-2.771 4.474 0 6.678 2.805 6.678 6.979v11.119h-4.441v-10.886c0-2.504-1.269-3.673-3.172-3.673-2.404 0-3.573 1.97-3.573 4.942v9.617h-4.442v-10.952c0-2.404-1.302-3.606-3.239-3.606-2.337 0-3.506 1.97-3.506 4.942v9.617h-4.441z"></path>
</symbol>


  </defs>
</svg>